<?xml version="1.0" encoding="utf-8"?>
<svg version="1.1" id="Layer_1" xmlns="http://www.w3.org/2000/svg" xmlns:xlink="http://www.w3.org/1999/xlink" x="0px" y="0px"
	 viewBox="0 0 5000 3423.676" enable-background="new 0 0 5000 3423.676" xml:space="preserve">
<g>
	<g>
		<g>
			<g>
				<path fill="#B3CDDB" d="M3007.714,2455.051c200.68,9.655,327.942-80.728,384.178,115.318
					c9.151,31.902,8.592,77.324,33.585,149.182c57.951,166.61,305.107,204.981,429.582,134.732
					c236.66-133.561-49.207-352.647-49.207-352.647s86.697-597.509-499.03-377.163"/>
				<path fill="#252468" d="M3711.168,2891.879c-45.197,0-92.004-8.017-134.989-24.255c-76.804-29.01-131.676-81.127-154.5-146.755
					c-16.238-46.678-21.712-81.905-26.11-110.199c-2.342-15.083-4.366-28.106-7.545-39.196
					c-39.695-138.353-115.249-130.776-229.618-119.246c-44.458,4.464-94.854,9.557-150.885,6.838
					c-2.22-0.102-3.934-1.989-3.828-4.213c0.11-2.216,2.091-4.055,4.213-3.82c55.446,2.625,105.519-2.374,149.694-6.814
					c114.161-11.499,196.62-19.767,238.158,125.039c3.321,11.569,5.38,24.828,7.765,40.178
					c4.346,27.972,9.758,62.798,25.756,108.792c22.031,63.333,75.208,113.713,149.741,141.866
					c92.287,34.849,202.42,31.108,274.06-9.322c57.379-32.382,88.141-72.591,91.435-119.521
					c7.789-110.954-139.622-225.28-141.111-226.427c-1.155-0.88-1.745-2.326-1.533-3.765c0.37-2.57,35.632-258.298-102.638-369.519
					c-84.522-68.009-216.068-69.117-390.991-3.301c-2.083,0.81-4.406-0.267-5.184-2.35c-0.786-2.075,0.267-4.401,2.346-5.179
					c177.784-66.893,311.987-65.353,398.895,4.574c134.635,108.321,109.107,348.259,105.841,374.589
					c18.101,14.257,150.103,122.256,142.404,231.945c-3.493,49.791-35.627,92.169-95.51,125.966
					C3816.955,2880.404,3765.219,2891.879,3711.168,2891.879z"/>
			</g>
			<g>
				<path fill="#B3CDDB" d="M3855.074,2854.301c-97.31,54.88-269.626,43.457-367.903-43.82
					c-27.44-24.297-49.078-54.578-61.71-90.903c-24.962-71.864-24.418-117.316-33.545-149.228
					c-56.271-196.01-183.499-105.651-384.222-115.322l299.122-330.551c163.432-61.469,274.522-59.293,349.771-24.176
					c194.317,90.782,149.289,401.327,149.289,401.327S4091.7,2720.726,3855.074,2854.301z"/>
				<path fill="#252468" d="M3710.221,2891.392c-79.343,0-165.071-24.042-225.724-77.904
					c-29.371-26.007-50.514-57.155-62.838-92.586c-16.226-46.71-21.692-81.952-26.086-110.27
					c-2.338-15.075-4.358-28.09-7.525-39.172c-39.715-138.321-115.273-130.713-229.622-119.246
					c-44.466,4.472-94.877,9.542-150.924,6.83c-1.556-0.071-2.928-1.037-3.525-2.476c-0.597-1.438-0.311-3.089,0.735-4.244
					l299.121-330.551c0.428-0.471,0.967-0.841,1.568-1.061c148.605-55.89,267.333-63.985,352.888-24.058
					c185.809,86.809,155.455,374.219,151.875,403.213c18.097,14.257,150.083,122.272,142.385,231.96
					c-3.494,49.799-35.624,92.185-95.498,125.982l0,0C3818.538,2879.524,3765.954,2891.392,3710.221,2891.392z M3238.948,2438.545
					c72.379,0,125.918,22.997,156.834,130.697c3.309,11.569,5.364,24.813,7.746,40.155c4.342,27.996,9.75,62.838,25.732,108.863
					c11.864,34.103,32.248,64.119,60.578,89.207c100.721,89.45,272.28,94.645,363.259,43.33l0,0
					c57.371-32.382,88.13-72.599,91.423-119.529c7.785-110.97-139.602-225.303-141.092-226.451c-1.155-0.88-1.745-2.326-1.533-3.765
					c0.444-3.081,42.34-308.638-147.01-397.106c-83.355-38.905-199.666-30.841-345.74,23.956l-292.707,323.462
					c52.078,1.776,99.279-2.948,141.182-7.152C3186.858,2441.273,3214.025,2438.545,3238.948,2438.545z M3855.074,2854.302h0.078
					H3855.074z"/>
			</g>
			<g opacity="0.6">
				<path fill="#FFFFFF" d="M3915.153,2807.64c0.408-185.819-138.772-252.946-138.772-252.946s45.028-310.545-149.289-401.327
					c-75.249-35.116-186.339-37.293-349.771,24.176l-251.615,278.028c-5.923-0.061-11.967-0.242-18.011-0.545l299.122-330.551
					c163.432-61.469,274.522-59.293,349.771-24.176c194.317,90.782,149.289,401.327,149.289,401.327
					S4032.408,2675.274,3915.153,2807.64z"/>
			</g>
			<g>
				<path fill="#252468" d="M3710.96,2911.914c-47.625,0.008-96.811-8.402-141.901-25.434
					c-82.49-31.156-141.591-87.619-166.415-158.984c-16.835-48.407-22.702-86.165-26.986-113.736
					c-2.24-14.406-4.173-26.856-7.003-36.728c-35.046-122.17-92.917-116.338-208.232-104.753
					c-45.153,4.543-96.312,9.699-153.871,6.917c-13.334-0.637-23.626-11.97-22.985-25.308c0.64-13.338,12.025-23.736,25.312-22.982
					c53.921,2.586,103.22-2.374,146.707-6.736c114.456-11.538,213.357-21.48,259.548,139.531
					c3.666,12.788,5.816,26.621,8.304,42.638c4.224,27.178,9.479,60.998,24.879,105.264c20.03,57.595,68.98,103.636,137.826,129.636
					c85.646,32.358,191.346,29.073,257.032-8.017c51.091-28.829,78.419-63.592,81.237-103.314
					c7.085-99.998-131.872-208.012-133.279-209.097c-6.932-5.329-10.461-13.998-9.204-22.651
					c0.35-2.444,33.839-247.145-95.412-350.994c-78.584-63.128-203.469-63.16-371.181-0.063c-12.481,4.7-26.436-1.619-31.14-14.116
					c-4.7-12.497,1.619-26.44,14.116-31.14c184.932-69.581,325.773-66.972,418.622,7.734
					c132.898,106.93,120.417,324.177,114.502,381.662c36.3,30.448,148.794,133.967,141.214,241.981
					c-3.997,56.966-39.565,104.776-105.708,142.109C3823.954,2899.598,3768.598,2911.914,3710.96,2911.914z"/>
			</g>
			<g>
				<path fill="#252468" d="M3762.278,2572.24c3.501-14.057,7.178-26.534,9.899-38.775c1.417-6.091,2.413-12.131,3.949-17.885
					c1.602-5.757,3.05-11.436,5.875-17.004l0.393-0.774c4.124-8.127,14.059-11.373,22.188-7.247
					c5.539,2.81,8.809,8.343,9.027,14.139c0.265,7.569-1.668,14.862-4.252,21.818c-2.649,6.96-6.641,13.365-10.95,19.37
					c-8.728,11.958-19.458,22.243-32.517,29.206c-1.224,0.653-2.745,0.189-3.397-1.037
					C3762.189,2573.486,3762.134,2572.822,3762.278,2572.24z"/>
			</g>
			<g opacity="0.3">
				<path fill="#252468" d="M3672.966,2563.822c0,0-37.412,112.058-185.795,246.659c-27.44-24.297-49.078-54.578-61.71-90.903
					c-24.962-71.864-24.418-117.316-33.545-149.228c-56.271-196.01-183.499-105.651-384.222-115.322l299.122-330.551
					c14.303-5.379,28.204-10.271,41.716-14.697c172.229-56.404,348.7,72.318,346.538,253.535
					C3693.698,2478.281,3672.966,2563.822,3672.966,2563.822z"/>
			</g>
			<g>
				<path fill="#B3CDDB" d="M3440.995,2696.187c0,0-223.994,235.78-803.078,194.801
					c-358.112-25.386-744.208-312.721-744.208-312.721l686.91-653.728c0,0,105.832-57.177,248.291-105.046
					c42.006-14.203,87.277-27.5,133.876-38.38c96.041-22.302,198.125-33.968,290.66-20.127
					c61.71,9.248,119.25,29.858,167.905,66.183c150.074,112.117,201.751,246.659,204.109,376.064
					C3630.235,2459.924,3440.995,2696.187,3440.995,2696.187z"/>
				<path fill="#252468" d="M2768.543,2899.739c-41.491,0-85.096-1.493-130.91-4.731
					c-355.179-25.182-742.453-310.635-746.324-313.512c-0.955-0.708-1.544-1.8-1.615-2.987c-0.071-1.187,0.381-2.342,1.242-3.16
					l686.91-653.73c0.259-0.244,0.55-0.456,0.861-0.621c1.061-0.574,107.767-57.886,248.921-105.319
					c45.311-15.318,90.48-28.271,134.242-38.488c111.033-25.78,209.344-32.578,292.169-20.183
					c66.469,9.958,123.573,32.484,169.72,66.94c133.743,99.919,202.958,227.504,205.725,379.21
					c4.747,255.193-183.447,493.167-185.349,495.54c-0.071,0.086-0.145,0.173-0.224,0.259
					C3441.839,2701.135,3247.145,2899.739,2768.543,2899.739z M1899.978,2577.857c41.341,29.851,404.388,285.453,738.221,309.118
					c565.561,40.045,793.608-187.137,799.766-193.448c5.486-6.932,188.115-240.504,183.471-490.219
					c-2.716-149.096-70.847-274.559-202.495-372.914c-45.071-33.647-100.953-55.662-166.093-65.431
					c-81.815-12.222-179.105-5.486-289.151,20.073c-43.507,10.155-88.425,23.029-133.499,38.268
					c-135.747,45.617-239.368,100.344-247.196,104.525L1899.978,2577.857z M3440.995,2696.183h0.078H3440.995z"/>
			</g>
			<g opacity="0.3">
				<path fill="#252468" d="M3440.995,2696.187c0,0-223.994,235.78-803.078,194.801
					c-358.112-25.386-744.208-312.721-744.208-312.721l87.458-83.227c148.745,53.853,422.482,141.553,667.207,158.899
					c579.084,40.978,792.622-184.043,792.622-184.043s184.587-78.354,172.196-366.151c7.857,33.182,11.665,66.485,12.269,99.486
					C3630.235,2459.924,3440.995,2696.187,3440.995,2696.187z"/>
			</g>
			<g>
				<path fill="#FFFFFF" d="M3625.46,2203.232c-99.123,121.727-290.72,158.173-462.251,78.089
					c-197.581-92.233-293.742-304.139-214.747-473.373c4.352-9.247,9.066-18.193,14.324-26.835
					c160.108-37.171,336.898-44.786,458.565,46.056C3571.426,1939.286,3623.103,2073.827,3625.46,2203.232z"/>
			</g>
			<g>
				<path fill="#252468" d="M2771.321,2919.993c-42.788,0-87.752-1.541-135.138-4.896c-361-25.559-740.913-305.558-756.907-317.465
					c-5.722-4.252-9.266-10.815-9.699-17.928c-0.428-7.121,2.303-14.061,7.467-18.973l686.929-653.683
					c1.552-1.478,3.289-2.743,5.172-3.757c23.559-12.74,580.384-309.377,866.698-95.494
					c122.111,91.211,192.706,205.466,209.832,339.582c36.135,283.001-176.7,552.553-185.778,563.895
					c-0.424,0.526-0.872,1.045-1.344,1.54C3449.852,2721.97,3255.61,2919.993,2771.321,2919.993z M1931.656,2575.507
					c88.405,61.116,410.735,270.315,707.938,291.363c543.656,38.496,769.412-173.131,783.284-186.744
					c13.585-17.464,207.442-272.233,174.805-526.837c-15.452-120.527-79.637-223.731-190.78-306.76
					c-252.003-188.245-769.416,75.547-812.015,97.844L1931.656,2575.507z"/>
			</g>
			<g>
				<path fill="#DC8D57" d="M963.083,2484.399c0,0-502.006,243.413-501.318,293.068c0.688,49.654,641.756-185.672,641.756-185.672"
					/>
				<path fill="#252468" d="M477.748,2787.999c-7.486,0-12.886-0.959-15.88-3.018c-2.657-1.831-4.083-4.409-4.126-7.459
					c-0.703-50.75,451.966-271.714,503.584-296.747c2.008-0.975,4.405-0.126,5.376,1.871c0.971,1.996,0.138,4.401-1.863,5.376
					c-200.864,97.396-499.529,254.84-499.049,289.391c0.004,0.244,0.008,0.503,0.637,0.935c2.248,1.548,6.406,2.279,12.253,2.279
					c72.018,0.016,402.27-111.418,623.455-192.615c2.11-0.747,4.401,0.307,5.164,2.397c0.766,2.083-0.303,4.394-2.389,5.164
					C1047.887,2616.502,577.624,2787.999,477.748,2787.999z"/>
			</g>
			<g>
				<path fill="#E37B35" d="M1103.527,2591.761l-55.362-42.315l-85.073-65.104c0,0-250.057,121.185-396.949,210.054
					c-61.207,37.041-104.601,68.491-104.387,83.07C462.488,2827.104,1103.527,2591.761,1103.527,2591.761z"/>
			</g>
			<g opacity="0.3">
				<path fill="#252468" d="M1103.505,2591.745c0,0-641.036,235.357-641.761,185.735c-0.181-13.599,37.776-42.067,92.777-75.974
					c108.612-20.429,354.909-105.046,491.686-153.52l1.934,1.451L1103.505,2591.745z"/>
			</g>
			<g>
				<path fill="#252468" d="M476.891,2808.607c-16.238,0-21.732-3.781-26.448-7.027c-8.036-5.525-12.721-14.194-12.85-23.775
					c-0.271-19.311-0.637-45.751,263.171-186.815c124.398-66.516,250.509-127.734,251.771-128.347
					c11.994-5.8,26.475-0.809,32.303,11.208c5.824,12.017,0.806,26.479-11.208,32.303
					c-185.074,89.741-382.837,195.633-458.246,249.519c100.815-20.372,351.8-102.874,579.807-186.579
					c12.524-4.598,26.424,1.831,31.026,14.367c4.602,12.536-1.827,26.424-14.364,31.03c-1.497,0.542-151.356,55.497-304.489,106.152
					C590.938,2792.243,510.668,2808.607,476.891,2808.607z"/>
			</g>
			<g>
				<path fill="#E37B35" d="M4130.319,2951.405c0,0,445.436,459.723,496.407,447.43s-439.935-616.986-439.935-616.986"/>
			</g>
			<g opacity="0.3">
				<path fill="#252468" d="M4186.784,2781.807l-56.45,169.613c0,0,445.371,459.693,496.363,447.454
					c14.83-3.544-16.041-57.053-67.283-131.066c-148.068-131.815-357.793-348.333-357.793-348.333l28.102-84.366
					C4203.238,2802.046,4186.784,2781.807,4186.784,2781.807z"/>
			</g>
			<g>
				<path fill="#252468" d="M4623.188,3423.676c-21.641,0-70.756-24.467-280.552-226.53
					c-116.684-112.384-228.565-227.763-229.681-228.919c-9.294-9.589-9.05-24.891,0.538-34.181
					c9.597-9.298,24.903-9.046,34.186,0.542c165.307,170.6,351.269,349.359,436.762,414.767
					c-61.576-100.776-242.661-338.23-416.417-552.263c-8.417-10.367-6.834-25.591,3.529-34.009
					c10.378-8.41,25.599-6.83,34.009,3.529c1.151,1.423,116.377,143.446,228.132,289.524
					c233.497,305.196,225.249,329.584,219.224,347.395c-3.191,9.447-10.866,16.474-20.525,18.8
					C4629.681,3422.992,4626.82,3423.676,4623.188,3423.676z"/>
			</g>
			<g>
				<path fill="#E37B35" d="M4574.784,2737.584c7.863,5.787,7.412,17.677-1.171,22.327
					c-1644.299,890.941-3682.991-156.413-4040.692-475.656c-17.872-15.849-28.061-38.491-28.061-62.346
					c0-49.166,40.351-83.695,83.614-83.695c15.687,0,31.779,4.529,46.497,14.556
					c545.834,371.248,2289.753,1035.953,3945.046,194.317c-36.711,20.54-64.126,100.918-64.126,196.904
					C4515.892,2635.348,4540.732,2712.526,4574.784,2737.584z"/>
			</g>
			<g opacity="0.5">
				<path fill="#FFFFFF" d="M4525.627,2448.951c-1638.876,799.99-3350.774,145.799-3890.624-221.406
					c-14.718-10.027-30.81-14.556-46.497-14.556c-31.134,0-60.648,17.872-74.881,46.093c-5.661-11.483-8.734-24.178-8.734-37.198
					c0-49.165,40.351-83.694,83.615-83.694c15.687,0,31.779,4.529,46.497,14.556
					c545.834,371.249,2289.753,1035.953,3945.045,194.316C4556.437,2360.243,4536.706,2398.087,4525.627,2448.951z"/>
			</g>
			<g opacity="0.3">
				<path fill="#252468" d="M532.95,2235.94c356.531,318.243,2383.42,1359.896,4024.975,483.967
					c-15.375-21.296-27.664-54.247-34.885-94.025c-2133.907,835.543-3770.729-261.827-3992.485-392.308
					C531.362,2234.352,532.105,2235.189,532.95,2235.94z"/>
			</g>
			<g opacity="0.35">
				<g>
					<path fill="#252468" d="M841.194,2338.339c32.977,21.697,67.589,41.487,102.352,60.594
						c34.842,19.06,70.216,37.156,105.94,54.526c35.72,17.374,71.764,34.087,108.176,49.968
						c36.274,16.187,72.978,31.395,109.785,46.328c147.529,59.065,298.906,108.164,452.234,149.718
						c153.467,41.078,309.183,73.88,466.023,98.87c156.801,25.056,315.319,38.767,474.05,45.727
						c317.53,13.236,636.793-4.767,950.782-55.19c156.905-25.492,312.553-59.666,464.318-106.171
						c75.743-23.603,150.559-50.054,223.37-80.836c36.319-15.586,72.033-32.437,106.932-50.596
						c34.918-18.112,68.913-37.813,101.31-59.513l0.086-0.059c9.237-6.189,21.744-3.714,27.931,5.521
						c6.189,9.239,3.716,21.748-5.521,27.933c-0.359,0.244-0.772,0.495-1.141,0.711c-70.444,40.658-143.937,73.892-218.992,102.226
						c-74.845,28.853-151.172,53.107-228.172,74.427c-154.019,42.63-310.551,74.537-468.049,99.337
						c-78.753,12.454-157.809,22.907-237.069,31.423c-39.634,4.22-79.305,8.103-119.028,11.361
						c-39.699,3.544-79.443,6.618-119.222,9.164c-159.104,10.277-318.732,13.417-478.204,8.39
						c-159.467-4.924-318.738-19.205-476.581-43.515c-78.84-12.65-157.249-27.359-235.222-44.356
						c-77.973-16.902-155.581-35.553-232.53-56.672c-153.942-42.041-305.404-93.234-453.016-153.855
						c-73.747-30.44-146.529-63.282-217.67-99.42c-35.604-17.999-70.845-36.72-105.552-56.408
						c-34.69-19.779-68.962-40.06-102.163-62.645c-1.941-1.32-2.444-3.965-1.124-5.906c1.309-1.922,3.912-2.433,5.847-1.163
						L841.194,2338.339z"/>
				</g>
			</g>
			<g>
				<path fill="#252468" d="M3112.864,3134.584c-388.48,0-750.03-60.598-1047.948-135.232
					c-735.553-184.268-1348.083-518.553-1548.09-697.06c-22.946-20.341-36.142-49.657-36.142-80.38
					c0-59.481,48.356-107.873,107.79-107.873c21.319,0,42.108,6.484,60.11,18.753c274.21,186.501,843.775,441.961,1546.471,548.066
					c589.23,88.963,1479.393,99.558,2374.009-355.325c11.73-5.973,26.082-1.438,32.283,10.17
					c6.201,11.608,1.969,26.047-9.522,32.476c-25.441,14.241-51.755,83.893-51.755,175.811c0,89.655,25.272,156.626,49.048,174.13
					c10.508,7.734,16.246,20.073,15.35,33.01c-0.88,12.733-8.111,23.964-19.347,30.04
					C4098.611,3044.78,3585.78,3134.584,3112.864,3134.584z M588.474,2162.39c-28.585,0-59.438,22.754-59.438,59.521
					c0,16.898,7.262,33.026,19.924,44.25c154.319,137.732,730.699,486.627,1527.71,686.292
					c648.791,162.529,1602.761,257.913,2471.554-206.338c-34.72-36.909-56.506-113.43-56.506-202.125
					c0-51.339,7.376-98.552,20.286-136.372c-365.66,175.167-757.815,289.587-1166.99,340.368
					c-374.84,46.513-764.174,40.021-1157.177-19.319c-710.724-107.323-1288.039-366.533-1566.462-555.91
					C611.271,2165.872,600.208,2162.39,588.474,2162.39z M4560.457,2757.064h0.083H4560.457z M4560.406,2757.024
					c0.016,0.008,0.031,0.023,0.047,0.031l0,0C4560.438,2757.048,4560.418,2757.032,4560.406,2757.024z"/>
			</g>
			<g>
				<path fill="#F8A56D" d="M4681.583,2543.991c0,111.673-37.116,202.161-82.886,202.161c-45.688,0-82.805-90.488-82.805-202.161
					c0-95.986,27.415-176.365,64.126-196.904c1.213-0.648,2.506-1.294,3.721-1.941c0.081-0.081,0.161-0.081,0.242-0.081
					c4.771-2.183,9.704-3.235,14.717-3.235C4644.468,2341.831,4681.583,2432.319,4681.583,2543.991z"/>
			</g>
			<g opacity="0.35">
				<path fill="#252468" d="M4681.615,2543.967c0,111.674-37.117,202.161-82.886,202.161c-45.688,0-82.805-90.487-82.805-202.161
					c0-21.025,1.293-41.241,3.719-60.324c10.594,82.239,41.969,141.835,79.085,141.835c37.118,0,68.573-59.597,79.167-141.835
					C4680.321,2502.644,4681.615,2522.941,4681.615,2543.967z"/>
			</g>
			<g>
				<path fill="#252468" d="M4598.698,2770.331c-70.233,0-106.981-113.862-106.981-226.341c0-104.792,30.743-192.395,76.498-218.002
					l4.189-2.193l0.004,0.008c0.711-0.377,1.438-0.715,2.181-1.021c7.663-3.403,15.77-5.125,24.109-5.125
					c70.284,0,107.06,113.862,107.06,226.333C4705.758,2656.469,4668.982,2770.331,4598.698,2770.331z M4593.939,2367.094
					l-2.558,1.328c-24.998,13.998-51.312,83.65-51.312,175.568c0,107.001,35.29,177.989,58.629,177.989
					c23.37,0,58.707-70.988,58.707-177.989c0-106.993-35.337-177.981-58.707-177.981c-1.631,0-3.109,0.33-4.649,1.038
					C4594.014,2367.062,4593.975,2367.078,4593.939,2367.094z"/>
			</g>
			<g opacity="0.3">
				<g>
					<path fill="#252468" d="M3869.451,2945.296c14.707,0.849,30.122,0.004,45.122-1.651c15.075-1.643,30.081-4.138,44.857-7.6
						c29.54-6.964,58.316-17.071,85.593-30.224c27.208-13.322,52.771-29.749,76.315-48.6c11.647-9.577,23.074-19.425,33.637-30.173
						l16.58-16.297c5.7-5.396,11.585-10.603,17.509-15.755c47.979-40.756,104.077-70.709,162.307-93.624
						c29.185-11.467,59.161-20.773,89.519-28.711c30.589-7.918,60.739-14.139,93.283-18.246
						c11.045-1.395,21.127,6.425,22.522,17.472c1.393,11.043-6.429,21.123-17.472,22.518c-0.627,0.079-1.25,0.13-1.867,0.149
						l-0.598,0.02c-13.964,0.432-29.357,1.867-44.067,3.706c-14.868,1.847-29.723,4.17-44.505,6.928
						c-29.548,5.608-58.776,13.114-87.398,22.428c-57.311,18.379-111.939,45.629-159.522,82.329
						c-5.863,4.68-11.701,9.412-17.37,14.332l-16.936,15.311c-11.42,10.717-23.692,20.482-36.156,29.906
						c-12.591,9.282-25.689,17.83-39.115,25.787c-13.52,7.808-27.434,14.878-41.626,21.295
						c-28.351,12.906-58.096,22.616-88.487,29.077c-30.448,6.52-61.219,10.233-92.854,9.196c-2.651-0.086-4.728-2.307-4.641-4.955
						c0.087-2.649,2.305-4.728,4.956-4.641c0.031,0,0.065,0.004,0.096,0.004L3869.451,2945.296z"/>
				</g>
				<g>
					<path fill="#252468" d="M2163.379,2886.79c90,18.521,180.4,34.417,271.172,47.44l68.182,8.944l68.341,7.467
						c22.736,2.841,45.619,4.299,68.414,6.52c22.799,2.244,45.655,3.769,68.514,5.203c22.848,1.572,45.698,3.085,68.589,3.867
						c22.881,0.868,45.739,2.287,68.638,2.519c22.893,0.361,45.767,1.438,68.66,1.458c22.893,0.023,45.782,0.338,68.669,0.126
						c91.556-0.786,183.052-5.305,274.245-13.129c91.177-8.009,182.02-19.771,272.168-35.443
						c90.165-15.574,179.551-35.588,267.535-60.338c43.91-12.619,87.497-26.349,130.277-42.057
						c21.419-7.781,42.511-16.328,63.315-25.343c10.394-4.511,20.631-9.325,30.759-14.242l15.004-7.639l15.566-8.19
						c41.915-21.146,86.652-37.608,133.185-45.849c46.208-8.111,95.066-9.986,139.938,6.783c1.051,0.393,1.583,1.564,1.19,2.613
						c-0.298,0.802-1.049,1.301-1.854,1.32l-0.175,0.004c-11.463,0.232-22.924,1.234-34.187,1.768
						c-11.304,0.861-22.514,2.063-33.667,3.171c-22.298,2.318-44.493,5.105-66.367,9.801
						c-43.749,9.062-86.578,23.092-127.021,42.642l-30.802,15.527c-10.546,5.085-21.129,10.017-31.818,14.623
						c-21.374,9.192-42.917,17.837-64.704,25.685c-43.466,16.022-87.511,30.13-131.88,43.019
						c-88.859,25.324-178.979,45.814-269.864,61.832c-90.855,16.191-182.419,28.236-274.324,36.319
						c-91.892,8.264-184.156,12.092-276.387,12.17c-46.114-0.141-92.227-0.719-138.298-2.684
						c-23.046-0.641-46.04-2.468-69.051-3.749c-23.021-1.199-45.99-3.124-68.95-5.109
						c-183.793-14.705-365.986-46.714-543.946-93.136c-1.075-0.279-1.719-1.379-1.438-2.456
						C2161.281,2887.21,2162.338,2886.577,2163.379,2886.79z"/>
				</g>
			</g>
			<g opacity="0.35">
				<path fill="#252468" d="M504.891,2221.883L504.891,2221.883c0,1.489,0.157,2.959,0.236,4.441
					C505.048,2224.842,504.891,2223.372,504.891,2221.883z"/>
			</g>
			<g opacity="0.35">
				<path fill="#252468" d="M510.212,2250.889c-2.24-6.021-3.824-12.285-4.623-18.729
					C506.389,2238.604,507.972,2244.868,510.212,2250.889z"/>
			</g>
			<g opacity="0.35">
				<path fill="#252468" d="M505.276,2221.258c-0.242,0.118-0.383,0.314-0.383,0.621
					C504.893,2221.573,505.035,2221.376,505.276,2221.258z"/>
			</g>
			<g opacity="0.35">
				<path fill="#252468" d="M525.603,2276.743c-3.535-4.032-6.71-8.331-9.384-12.913
					C518.893,2268.412,522.068,2272.711,525.603,2276.743z"/>
			</g>
			<g opacity="0.35">
				<path fill="#252468" d="M940.13,2545.777c-20.535-10.87-40.467-21.649-59.814-32.319
					C899.663,2524.128,919.595,2534.907,940.13,2545.777z"/>
			</g>
			<g opacity="0.35">
				<path fill="#252468" d="M853.152,2498.329c-24.217-13.621-47.384-27.025-69.508-40.171
					C805.767,2471.303,828.935,2484.708,853.152,2498.329z"/>
			</g>
			<g opacity="0.35">
				<path fill="#252468" d="M1009.89,2581.884c-14.99-7.588-29.709-15.145-44.161-22.671
					C980.181,2566.739,994.9,2574.296,1009.89,2581.884z"/>
			</g>
			<g opacity="0.35">
				<path fill="#252468" d="M506.389,2221.203c-0.33-0.047-0.57-0.028-0.79,0.016
					C505.819,2221.179,506.058,2221.152,506.389,2221.203z"/>
			</g>
			<g opacity="0.35">
				<path fill="#252468" d="M703.301,2408.655c-60.039-38.465-109.15-73.609-146.014-103.731
					C594.151,2335.045,643.259,2370.19,703.301,2408.655z"/>
			</g>
			<g opacity="0.35">
				<path fill="#252468" d="M4566.116,2729.841c-0.01-0.012-0.02-0.024-0.029-0.032
					C4566.097,2729.818,4566.106,2729.829,4566.116,2729.841z"/>
			</g>
			<g opacity="0.35">
				<path fill="#252468" d="M4570.054,2733.653c0.122,0.11,0.238,0.24,0.359,0.346
					C4570.292,2733.893,4570.176,2733.763,4570.054,2733.653z"/>
			</g>
			<g opacity="0.35">
				<path fill="#252468" d="M4577.348,2739.996c-0.032-0.039-0.081-0.067-0.114-0.106
					C4577.267,2739.929,4577.316,2739.957,4577.348,2739.996z"/>
			</g>
			<g opacity="0.35">
				<path fill="#252468" d="M515.427,2225.039c1.014,0.531,2.116,1.128,3.275,1.76
					C517.545,2226.167,516.441,2225.569,515.427,2225.039z"/>
			</g>
			<g opacity="0.35">
				<path fill="#252468" d="M511.926,2223.282c0.727,0.35,1.523,0.743,2.364,1.175
					C513.45,2224.025,512.653,2223.628,511.926,2223.282z"/>
			</g>
			<g opacity="0.35">
				<path fill="#252468" d="M519.624,2227.302c3.138,1.737,6.755,3.82,10.876,6.24
					C526.379,2231.118,522.76,2229.039,519.624,2227.302z"/>
			</g>
			<g opacity="0.35">
				<path fill="#252468" d="M509.124,2222.048c0.527,0.208,1.1,0.452,1.727,0.735C510.224,2222.5,509.65,2222.256,509.124,2222.048z
					"/>
			</g>
			<g opacity="0.35">
				<path fill="#252468" d="M507.009,2221.344c0.369,0.091,0.763,0.2,1.23,0.366
					C507.774,2221.545,507.377,2221.435,507.009,2221.344z"/>
			</g>
			<g opacity="0.35">
				<path fill="#252468" d="M532.95,2284.229c-2.234-1.981-4.346-4.067-6.335-6.248
					C528.604,2280.162,530.718,2282.249,532.95,2284.229c3.651,3.262,7.541,6.622,11.542,10.029
					C540.491,2290.851,536.601,2287.487,532.95,2284.229z"/>
			</g>
			<g opacity="0.35">
				<path fill="#252468" d="M2133.9,2991.228c-21.15-5.003-42.208-10.107-63.12-15.346
					C2091.692,2981.121,2112.75,2986.225,2133.9,2991.228z"/>
			</g>
			<g opacity="0.35">
				<path fill="#252468" d="M2362.777,3039.529c-24.877-4.602-49.627-9.396-74.248-14.367
					C2313.15,3030.133,2337.9,3034.927,2362.777,3039.529z"/>
			</g>
			<g opacity="0.35">
				<path fill="#252468" d="M2362.777,3039.529c22.736,4.209,45.588,8.241,68.526,12.127
					C2408.365,3047.77,2385.513,3043.738,2362.777,3039.529z"/>
			</g>
			<g opacity="0.35">
				<path fill="#252468" d="M2705.515,3089.32c-62.969-6.586-125.396-14.579-187.182-23.795
					C2580.121,3074.74,2642.546,3082.733,2705.515,3089.32z"/>
			</g>
			<g opacity="0.35">
				<path fill="#252468" d="M1252.506,2696.049c-86.458-37.836-167.274-76.057-241.535-113.618
					C1085.233,2619.991,1166.049,2658.213,1252.506,2696.049z"/>
			</g>
			<g opacity="0.35">
				<path fill="#252468" d="M2978.302,3108.595c-64.356-2.319-128.338-6.245-191.839-11.625
					C2849.965,3102.351,2913.946,3106.277,2978.302,3108.595z"/>
			</g>
			<g opacity="0.35">
				<path fill="#252468" d="M2705.515,3089.32c24.677,2.582,49.443,4.932,74.279,7.078
					C2754.958,3094.255,2730.192,3091.902,2705.515,3089.32z"/>
			</g>
			<g opacity="0.35">
				<path fill="#252468" d="M3058.382,3110.639c-25.843-0.385-51.632-1.037-77.362-1.945
					C3006.75,3109.601,3032.539,3110.254,3058.382,3110.639z"/>
			</g>
			<g opacity="0.35">
				<path fill="#252468" d="M4573.579,2759.873c-488.03,264.44-1010.8,358.126-1514.05,350.786
					C3562.779,3118.003,4085.551,3024.313,4573.579,2759.873c3.403-1.812,5.482-4.759,6.335-8.013
					C4579.061,2755.114,4576.982,2758.061,4573.579,2759.873z"/>
			</g>
			<g opacity="0.35">
				<path fill="#252468" d="M2243.856,3015.891c-31.769-6.736-63.305-13.758-94.59-21.052
					C2180.551,3002.133,2212.087,3009.156,2243.856,3015.891z"/>
			</g>
			<g opacity="0.35">
				<path fill="#252468" d="M1450.105,2777.69c-16.605-6.465-33.04-12.965-49.325-19.496
					C1417.065,2764.726,1433.499,2771.226,1450.105,2777.69z"/>
			</g>
			<g opacity="0.35">
				<path fill="#252468" d="M1920.4,2935.688c-50.677-14.375-100.507-29.36-149.415-44.847
					C1819.893,2906.328,1869.723,2921.313,1920.4,2935.688z"/>
			</g>
			<g opacity="0.35">
				<path fill="#252468" d="M1360.002,2741.65c-3.405-1.399-6.804-2.798-10.194-4.201
					C1353.198,2738.852,1356.597,2740.251,1360.002,2741.65z"/>
			</g>
			<g opacity="0.35">
				<path fill="#252468" d="M1301.804,2717.325c-2.784-1.183-5.565-2.366-8.337-3.552
					C1296.239,2714.959,1299.02,2716.142,1301.804,2717.325z"/>
			</g>
			<g opacity="0.35">
				<path fill="#252468" d="M1554.867,2817.197c-19.545-7.137-38.905-14.328-58.061-21.579
					C1515.962,2802.869,1535.322,2810.06,1554.867,2817.197z"/>
			</g>
			<g opacity="0.35">
				<path fill="#252468" d="M1749.77,2884.074c-14.898-4.787-29.703-9.62-44.421-14.493
					C1720.066,2874.454,1734.872,2879.288,1749.77,2884.074z"/>
			</g>
			<g opacity="0.35">
				<path fill="#252468" d="M1677.97,2860.425c-10.465-3.529-20.881-7.082-31.252-10.65
					C1657.089,2853.343,1667.505,2856.896,1677.97,2860.425z"/>
			</g>
			<g opacity="0.35">
				<path fill="#252468" d="M1618.569,2839.993c-13.731-4.814-27.373-9.659-40.925-14.536
					C1591.196,2830.334,1604.839,2835.179,1618.569,2839.993z"/>
			</g>
			<g>
				<path fill="#89C356" d="M240.299,2827.117c137.969,29.999,283.508-100.642,283.508-100.642s-78.152-179.28-216.12-209.279
					S24.178,2617.839,24.178,2617.839S102.33,2797.118,240.299,2827.117z"/>
				<path fill="#252468" d="M282.488,2835.557c-14.332,0-28.731-1.399-43.047-4.511
					c-138.376-30.087-218.163-209.789-218.953-211.596c-0.692-1.595-0.287-3.45,1.002-4.606
					c1.474-1.321,148.688-131.641,287.052-101.578c138.376,30.087,218.163,209.789,218.953,211.596
					c0.692,1.595,0.287,3.45-1.002,4.606C525.176,2730.655,406.709,2835.557,282.488,2835.557z M241.154,2823.187
					c125.192,27.178,258.962-81.787,277.739-97.781c-10.441-22.345-86.864-177.053-212.064-204.279
					c-125.188-27.21-258.962,81.787-277.739,97.781C39.532,2641.252,115.955,2795.961,241.154,2823.187L241.154,2823.187z"/>
			</g>
			<g opacity="0.5">
				<path fill="#FFFFFF" d="M105.514,2626.129c0,0,104.39-93.669,220.137-104.094c-5.834-1.91-11.842-3.567-17.964-4.893
					c-137.98-29.971-283.483,100.727-283.483,100.727s78.114,179.294,216.093,209.266c21.126,4.565,42.487,5.421,63.463,3.522
					C176.946,2790.025,105.514,2626.129,105.514,2626.129z"/>
			</g>
			<g opacity="0.3">
				<path fill="#252468" d="M523.838,2726.482c0,0-78.191-179.234-216.151-209.341c-51.391-11.218-103.767-0.122-149.253,18.294
					c8.643,0.633,17.405,1.906,26.016,3.781c137.979,29.971,216.093,209.266,216.093,209.266s-57.383,51.56-134.367,82.415
					C395.898,2841.304,523.838,2726.482,523.838,2726.482z"/>
			</g>
			<g>
				<path fill="#252468" d="M283.105,2855.78c-15.884,0-31.918-1.556-47.943-5.038l0,0
					C86.815,2818.486,5.409,2635.279,2.014,2627.498c-4.162-9.549-1.737-20.694,6.013-27.65
					c6.319-5.675,156.433-138.51,304.795-106.278c148.346,32.256,229.752,215.463,233.147,223.244
					c4.162,9.549,1.737,20.694-6.013,27.65C534.321,2749.526,414.258,2855.78,283.105,2855.78z M245.434,2803.49
					c100.874,21.952,210.197-53.838,248.257-83.563c-22.262-42.827-90.252-157.168-191.142-179.105
					c-100.921-21.999-210.201,53.831-248.257,83.563C76.554,2667.213,144.544,2781.554,245.434,2803.49L245.434,2803.49z"/>
			</g>
			<g>
				<path fill="#252468" d="M244.326,2660.048l271.252,39.899c13.241,1.945,22.396,14.257,20.449,27.501
					c-1.947,13.24-14.259,22.392-27.501,20.447c-1.057-0.157-2.22-0.417-3.22-0.7l-263.33-76.34
					c-2.94-0.853-4.631-3.926-3.778-6.865C238.977,2661.294,241.626,2659.647,244.326,2660.048z"/>
			</g>
			<g>
				<path fill="#89C356" d="M964.879,2966.67c18.477-139.978-123.762-274.205-123.762-274.205s-172.196,92.722-190.673,232.701
					c-18.477,139.978,123.762,274.205,123.762,274.205S946.402,3106.648,964.879,2966.67z"/>
				<path fill="#252468" d="M774.208,3203.395c-1.002,0-1.996-0.377-2.763-1.1c-1.438-1.352-143.52-137.26-124.991-277.656
					c18.533-140.396,191.016-234.782,192.757-235.717c1.517-0.817,3.399-0.574,4.669,0.621
					c1.438,1.352,143.52,137.26,124.987,277.656c-18.529,140.396-191.012,234.782-192.753,235.717
					C775.517,3203.238,774.86,3203.395,774.208,3203.395z M840.46,2697.448c-21.41,12.253-169.26,101.216-186.029,228.243
					c-16.765,127.027,102.941,251.303,120.433,268.696c21.41-12.253,169.261-101.216,186.025-228.243l0,0
					C977.666,2839.055,857.956,2714.834,840.46,2697.448z"/>
			</g>
			<g opacity="0.5">
				<path fill="#FFFFFF" d="M964.87,2966.648c1.342-10.277,1.85-20.53,1.582-30.683
					c-47.703,107.694-174.283,175.797-174.283,175.797s-122.112-115.224-125.344-243.492c-8,17.884-13.798,36.902-16.408,56.912
					c-18.467,139.975,123.761,274.176,123.761,274.176S946.403,3106.623,964.87,2966.648z"/>
			</g>
			<g opacity="0.3">
				<path fill="#252468" d="M909.485,3086.379c27.249-33.945,49.416-74.271,55.385-119.731
					c18.467-139.975-123.761-274.175-123.761-274.175s-172.225,92.733-190.692,232.708c-1.174,9.054-1.728,18.123-1.582,27.149
					c56.678-70.641,135.308-112.978,135.308-112.978S908.459,2956.682,909.485,3086.379z"/>
			</g>
			<g>
				<path fill="#252468" d="M774.216,3223.547c-6.036,0-12.002-2.256-16.599-6.594c-6.178-5.824-151.007-144.444-131.141-294.947
					c19.869-150.511,195.704-246.8,203.179-250.823c9.176-4.936,20.482-3.45,28.055,3.702
					c6.178,5.824,151.007,144.444,131.138,294.955v-0.008c-19.861,150.511-195.7,246.799-203.175,250.823
					C782.064,3222.596,778.126,3223.547,774.216,3223.547z M837.085,2723.016c-40.839,25.732-149.159,102.953-162.674,205.316
					c-13.507,102.348,71.055,205.026,103.829,240.488c40.839-25.732,149.16-102.953,162.67-205.309c0-0.008,0-0.008,0-0.008
					C954.421,2861.156,869.859,2758.479,837.085,2723.016z"/>
			</g>
			<g>
				<path fill="#252468" d="M798.05,2976.483l17.309-273.624c0.845-13.357,12.357-23.496,25.713-22.655
					c13.357,0.845,23.5,12.359,22.655,25.717c-0.069,1.065-0.234,2.248-0.432,3.266l-54.282,268.747
					c-0.607,2.999-3.529,4.94-6.529,4.331C799.734,2981.71,797.875,2979.207,798.05,2976.483z"/>
			</g>
			<g>
				<path fill="#89C356" d="M4678.125,2953.036c-121.618,71.507-139.896,266.07-139.896,266.07s178.904,78.629,300.522,7.123
					c121.618-71.507,139.896-266.07,139.896-266.07S4799.744,2881.53,4678.125,2953.036z"/>
				<path fill="#252468" d="M4715.574,3260.039c-92.672,0-177.725-36.704-178.963-37.247c-1.588-0.7-2.551-2.334-2.39-4.063
					c0.185-1.965,19.885-197.441,141.866-269.16c121.973-71.735,302.375,6.107,304.178,6.901c1.587,0.7,2.55,2.334,2.389,4.063
					c-0.185,1.965-19.885,197.441-141.866,269.16C4802.38,3252.281,4758.169,3260.031,4715.574,3260.039z M4542.565,3216.56
					c22.82,9.329,183.797,71.082,294.146,6.201c110.364-64.889,134.663-235.583,137.602-260.058
					c-22.816-9.329-183.793-71.09-294.146-6.201l0,0C4569.802,3021.39,4545.504,3192.085,4542.565,3216.56z M4678.127,2953.035
					h0.078H4678.127z"/>
			</g>
			<g opacity="0.5">
				<path fill="#FFFFFF" d="M4662.029,2961.082c-8.768,5.156-16.936,11.011-24.662,17.327
					c118.702-43.923,268.846,21.991,268.846,21.991s-15.798,167.461-115.236,248.745c10.86-4.016,21.482-8.874,31.676-14.866
					c121.62-71.507,139.897-266.071,139.897-266.071S4783.646,2889.576,4662.029,2961.082z"/>
			</g>
			<g opacity="0.3">
				<path fill="#252468" d="M4678.088,2953.07c-121.55,71.464-139.835,266.06-139.835,266.06s178.845,78.607,300.488,7.116
					c19.317-11.332,36.014-25.734,50.445-42c-97.152,3.752-189.629-36.827-189.629-36.827s12.913-137.828,89.577-224.117
					C4751.053,2924.777,4712.302,2932.918,4678.088,2953.07z"/>
			</g>
			<g>
				<path fill="#252468" d="M4714.843,3280.505c-95.388,0.008-181.093-36.956-186.339-39.267
					c-9.538-4.189-15.318-14.022-14.344-24.396c0.794-8.441,20.938-207.761,151.714-284.651
					c104.509-61.447,244.084-22.675,299.239-3.152c24.035,8.512,38.394,32.94,34.146,58.075
					c-9.754,57.689-43.723,198.502-148.256,259.956C4808.604,3272.001,4760.606,3280.505,4714.843,3280.505z M4564.768,3203.473
					c45.362,16.348,172.786,54.2,261.729,1.91c87.009-51.15,116.459-175.316,125.085-226.333c0.33-1.949-0.743-3.765-2.609-4.425
					c-48.769-17.267-171.595-51.905-258.593-0.747l0,0C4601.197,3026.31,4572.479,3155.883,4564.768,3203.473z M4678.127,2953.035
					h0.078H4678.127z"/>
			</g>
			<g>
				<path fill="#252468" d="M4788.427,3078.415l-226.164,154.606c-11.048,7.553-26.127,4.719-33.68-6.331
					c-7.553-11.047-4.72-26.125,6.329-33.678c0.884-0.605,1.916-1.203,2.845-1.674l245.066-122.457
					c2.737-1.368,6.066-0.255,7.434,2.48C4791.51,3073.872,4790.681,3076.878,4788.427,3078.415z"/>
			</g>
			<g>
				<path fill="#B3CDDB" d="M1979.614,2434.538c0,135.438-181.156,698.052-13.757,803.742
					c204.387,129.042,415.388-164.886,404.588-645.208"/>
				<path fill="#252468" d="M2063.379,3272.74c-33.325,0-66.893-10.367-99.672-31.061
					c-123.993-78.289-62.617-390.976-17.802-619.289c15.927-81.15,29.686-151.242,29.686-187.852c0-2.224,1.8-4.024,4.024-4.024
					c2.224,0,4.024,1.8,4.024,4.024c0,37.396-13.829,107.834-29.839,189.401c-41.864,213.286-105.126,535.593,14.206,610.935
					c58.75,37.097,120.134,39.542,177.509,7.074c139.083-78.729,227.862-339.456,220.906-648.779
					c-0.047-2.224,1.713-4.071,3.934-4.118c0.031,0,0.063,0,0.091,0c2.181,0,3.973,1.745,4.024,3.93
					c7.019,312.215-83.398,575.826-224.993,655.97C2121.446,3264.817,2092.503,3272.732,2063.379,3272.74z"/>
			</g>
			<g opacity="0.3">
				<path fill="#252468" d="M1965.875,3238.281c-52.886-33.424-70.958-112.36-71.018-209.005
					c10.94,23.632,25.808,42.43,45.512,54.881c178.396,112.674,361.891-97.122,398.429-471.874
					c1.5-15.382,17.349-25.025,31.667-19.208h0C2381.224,3073.399,2170.226,3367.322,1965.875,3238.281z"/>
			</g>
			<g>
				<path fill="#252468" d="M2003.79,2434.536c-0.208,20.741-2.772,39.086-5.4,57.603c-2.709,18.403-5.893,36.465-9.188,54.448
					c-6.622,35.938-13.754,71.495-20.679,107.024c-13.884,71.008-27.141,141.85-36.779,212.854
					c-9.329,70.839-16.034,142.42-10.84,211.616c2.833,34.283,8.781,68.453,22.26,96.846c6.628,14.187,15.363,26.444,25.944,35.624
					l4.026,3.364l4.28,2.963c2.863,2.008,6.875,3.965,10.245,5.969c6.918,4.35,14.285,7.341,21.571,10.544
					c14.721,5.678,29.894,9.974,45.251,10.563c7.663,1.069,15.309-0.094,22.972-0.181c7.547-1.529,15.254-2.024,22.636-4.661
					c30.071-8.04,57.412-27.237,81.087-50.392c23.844-23.26,43.597-51.563,60.519-81.547c16.985-30.012,31.291-61.942,43.19-94.885
					c12.086-32.881,22.475-66.579,31.26-100.843c8.563-34.334,15.876-69.09,21.906-104.222
					c12.059-70.289,18.832-141.748,24.335-213.97l0.006-0.067c0.34-4.456,4.226-7.793,8.683-7.455
					c3.938,0.299,7.001,3.376,7.426,7.16c8.217,72.689,8.817,146.483,1.888,219.943l-2.942,27.54
					c-1.026,9.176-2.633,18.289-3.926,27.449c-2.531,18.321-6.126,36.531-9.775,54.715c-7.787,36.303-17.845,72.269-30.537,107.5
					c-12.955,35.113-28.159,69.707-47.437,102.501c-19.185,32.779-42.025,64.032-70.229,91.337
					c-28.094,27.056-62.11,50.781-102.391,61.792c-9.818,3.325-20.313,4.37-30.558,6.186c-10.434,0.381-20.911,1.6-31.309,0.346
					c-20.934-0.959-41.169-6.571-60.112-13.955c-9.337-4.024-18.719-8.009-27.231-13.263c-4.419-2.614-8.596-4.633-13.19-7.769
					l-6.875-4.802l-6.431-5.313c-16.82-14.583-29.22-32.81-37.928-51.362c-17.541-37.435-23.545-76.12-26.811-113.783
					c-5.59-75.594,1.623-149.262,11.119-221.959c9.868-72.67,23.314-144.396,37.241-215.652
					c6.946-35.624,14.065-71.137,20.579-106.486c3.238-17.668,6.341-35.309,8.909-52.761c2.517-17.331,4.773-35.022,4.883-50.557
					l0.004-0.417c0.094-13.349,10.996-24.097,24.347-23.999c13.352,0.094,24.098,10.996,24.003,24.345L2003.79,2434.536z"/>
			</g>
			<g opacity="0.3">
				<path fill="#252468" d="M3319.569,1964.006c-33.182,113.024-210.213,159.624-340.584,101.299
					c-107.162-47.929-120.459-171.41-120.882-225.626c-0.121-13.539-12.633-23.511-25.869-20.852
					c-1.088,0.242-2.176,0.423-3.324,0.665c42.006-14.203,87.277-27.5,133.876-38.38c96.041-22.302,198.125-33.968,290.66-20.127
					C3310.926,1825.053,3337.64,1902.357,3319.569,1964.006z"/>
			</g>
			<g>
				<path fill="#B3CDDB" d="M2904.67,1791.508c10.811-2.194,20.996,5.952,21.087,16.982c0.364,44.175,11.189,144.737,98.458,183.778
					c106.2,47.51,250.394,9.536,277.42-82.531c41.18-140.283-202.647-380.369-483.318-205.898
					c-83.445,51.871-109.086,137.941-109.086,137.941s78.322-24.424,112.951-32.537
					C2848.865,1802.992,2882.879,1795.931,2904.67,1791.508z"/>
				<path fill="#252468" d="M3123.95,2016.728c-35.125,0-70.391-6.924-101.377-20.789
					c-89.957-40.241-100.489-144.475-100.839-187.42c-0.031-4.016-1.847-7.773-4.975-10.312c-3.175-2.57-7.286-3.584-11.286-2.751
					c0,0,0,0-0.004,0c-18.796,3.812-54.491,11.176-82.373,17.708c-34.091,7.978-111.885,32.216-112.667,32.46
					c-1.403,0.432-2.967,0.063-4.024-0.982c-1.061-1.046-1.454-2.586-1.03-4.009c0.26-0.88,27.045-88.137,110.816-140.215
					c134.026-83.312,280.772-82.329,392.536,2.664c75.939,57.745,115.733,143.186,96.771,207.784
					c-10.445,35.573-38.909,65.651-80.148,84.679C3194.749,2009.663,3159.42,2016.728,3123.95,2016.728z M2908.219,1787.126
					c4.916,0,9.707,1.674,13.605,4.834c5.003,4.056,7.907,10.068,7.958,16.497c0.338,41.389,10.378,141.803,96.076,180.142
					c60.244,26.935,137.225,26.817,196.121-0.362c39.098-18.046,66.017-46.324,75.794-79.633
					c18.045-61.47-20.573-143.351-93.918-199.115c-109.009-82.879-252.336-83.72-383.411-2.232
					c-67.042,41.672-96.433,106.584-104.753,128.316c20.62-6.351,77.582-23.689,105.57-30.252
					c27.984-6.547,63.769-13.935,82.612-17.755C2905.319,1787.275,2906.777,1787.126,2908.219,1787.126z M2904.671,1791.512h0.079
					H2904.671z"/>
			</g>
			<g opacity="0.3">
				<path fill="#252468" d="M3305.728,1887.67c-0.665,7.555-1.995,14.929-4.11,22.061
					c-27.017,92.051-171.229,130.069-277.424,82.562c-87.277-39.045-98.095-139.618-98.458-183.8
					c-0.061-11.061-10.275-19.16-21.094-16.984c-21.759,4.412-55.787,11.484-82.441,17.71
					c-34.633,8.159-112.964,32.578-112.964,32.578s8.945-29.978,33.363-65.156c20.188-6.225,77.485-23.692,105.771-30.281
					c26.715-6.226,60.683-13.297,82.502-17.769c10.819-2.176,20.973,5.984,21.094,16.984
					c0.363,44.182,11.182,144.756,98.458,183.801C3139.213,1969.083,3254.534,1949.078,3305.728,1887.67z"/>
			</g>
			<g opacity="0.6">
				<path fill="#FFFFFF" d="M3303.552,1902.055c-26.231-136.717-241.944-297.067-485.219-145.783
					c-35.781,22.182-60.864,50.649-77.908,75.974c-17.951,5.44-31.187,9.55-31.187,9.55s25.627-86.068,109.096-137.927
					C3093.943,1532.519,3334.074,1760.925,3303.552,1902.055z"/>
			</g>
			<g>
				<path fill="#252468" d="M3123.966,2037.156c-37.734,0-75.617-7.6-109.622-22.816
					c-96.276-43.071-110.978-150.142-112.593-197.559c-21.469,4.394-50.769,10.548-74.053,16.002
					c-33.384,7.82-110.494,31.839-111.269,32.083c-8.528,2.649-17.822,0.393-24.184-5.879c-6.358-6.28-8.736-15.546-6.186-24.105
					c1.155-3.875,29.297-95.502,119.493-151.572c141.414-87.902,296.692-86.503,415.372,3.733
					c82.443,62.688,125.172,157.066,103.908,229.5c-12.104,41.247-44.438,75.798-91.042,97.302
					C3200.125,2029.382,3162.12,2037.156,3123.966,2037.156z M2904.243,1767.87c10.292,0,20.344,3.466,28.55,10.005
					c10.615,8.457,16.886,21.079,17.205,34.637c1.077,45.326,13.432,126.076,84.09,157.687
					c55.17,24.679,125.604,24.577,179.447-0.259c33.741-15.57,56.79-39.369,64.905-67.011
					c15.495-52.777-21.001-127.388-86.778-177.399c-102.081-77.606-236.877-78.038-360.579-1.163
					c-36.72,22.832-61.215,53.351-76.619,78.447c22.129-6.523,46.372-13.401,62.205-17.11c24.927-5.84,56.361-12.41,78.344-16.898
					C2898.081,1768.176,2901.173,1767.87,2904.243,1767.87z M2899.845,1792.494h0.079H2899.845z"/>
			</g>
			<g>
				<path fill="#B3CDDB" d="M1903.268,1220.527c0,0,10.541-627.273,522.806-602.951c58.865,2.795,353.223,43.638,477.372,270.145
					c17.722,32.334,17.952,82.04-35.327,82.698c0,0,102.711,124.351,83.548,261.963s-100.674,76.712-100.674,76.712
					s15.973,194.331-135.241,184.707L1903.268,1220.527z"/>
				<path fill="#252468" d="M2726.396,1498.168c-3.568,0-7.199-0.118-10.901-0.354c-0.35-0.024-0.696-0.094-1.026-0.204
					l-812.482-273.271c-1.662-0.558-2.771-2.13-2.743-3.883c0.055-3.175,7.486-319.799,192.906-493.669
					c86.947-81.528,199.363-119.588,334.116-113.229c94.665,4.496,365.57,62.158,480.709,272.229
					c9.84,17.951,16.996,46.348,4.771,67.286c-4.995,8.559-15.193,18.635-35.793,20.906c20.093,26.896,96.481,138.447,79.7,258.958
					c-6.905,49.563-22.699,79.83-46.946,89.953c-21.186,8.826-42.654-0.251-53.288-6.233c0.821,25.143-0.507,103.417-45.118,148.861
					C2789.005,1487.211,2760.813,1498.168,2726.396,1498.168z M2716.528,1489.813c36.748,2.279,66.323-7.844,88.012-29.914
					c49.952-50.859,42.524-149.482,42.442-150.472c-0.126-1.58,0.68-3.081,2.063-3.843c1.379-0.778,3.077-0.668,4.354,0.283
					c0.271,0.212,27.363,20.042,52.25,9.573c21.414-8.968,35.553-37.097,42.033-83.618c18.702-134.297-81.649-257.606-82.667-258.84
					c-0.986-1.195-1.199-2.845-0.546-4.252c0.652-1.407,2.052-2.319,3.6-2.334c17.767-0.22,30.122-6.068,36.724-17.378
					c9.856-16.875,4.653-41.978-4.877-59.364c-113.359-206.821-380.621-263.623-474.036-268.056
					c-132.536-6.343-242.905,31.065-328.197,111.036c-173.442,162.607-189.098,452.69-190.301,485.032L2716.528,1489.813z"/>
			</g>
			<g opacity="0.6">
				<path fill="#FFFFFF" d="M2857.68,1313.24c-4.231-2.297-6.709-4.171-6.709-4.171s16.017,194.378-135.206,184.707l-18.192-6.105
					c123.74-57.142,127.651-231.368,127.651-231.368S2839.487,1286.645,2857.68,1313.24z"/>
			</g>
			<g opacity="0.6">
				<path fill="#FFFFFF" d="M2951.665,1232.37c-4.412,31.61-2.939,81.226-58.665,90.056
					c77.344-154.259-115.374-378.299-115.374-378.299c53.309-0.665,121.939,44.726,104.23,12.392
					c-124.206-226.532-418.553-267.39-477.422-270.171c-279.116-13.237-409.306,166.998-469.988,333.815
					c48.776-181.262,173.344-417.707,491.625-402.597c58.87,2.78,353.217,43.638,477.362,270.17
					c17.709,32.336,17.951,82.019-35.298,82.683C2868.136,970.419,2970.825,1094.746,2951.665,1232.37z"/>
			</g>
			<g>
				<path fill="#252468" d="M2726.549,1518.328c-4.04,0-8.151-0.134-12.336-0.401c-2.103-0.134-4.173-0.542-6.17-1.21
					l-812.482-273.27c-9.982-3.364-16.643-12.795-16.466-23.327c0.224-13.322,7.687-328.382,199.269-508.029
					c91.077-85.406,208.484-125.349,348.856-118.66c3.513,0.165,353.309,19.732,497.427,282.674
					c12.371,22.565,20.969,58.923,4.5,87.131c-3.612,6.186-10.139,14.642-21.174,21.221c30.813,47.016,82.514,144.444,67.64,251.256
					c-7.954,57.131-27.854,92.712-59.144,105.775c-14.658,6.115-29.018,6.217-41.456,3.812
					c-2.401,38.009-12.662,95.966-50.329,134.336C2799.447,1505.336,2766.479,1518.328,2726.549,1518.328z M2720.34,1469.834
					c29.843,1.383,52.671-6.578,69.841-24.074c36.174-36.846,38.771-109.712,36.72-134.682c-0.782-9.479,4.067-18.525,12.387-23.131
					c8.308-4.614,18.557-3.914,26.177,1.784c0.031,0.016,18.639,12.992,32.519,7.074c13.719-5.855,24.557-30.558,29.741-67.758
					c17.421-125.109-77.303-242.091-78.262-243.255c-5.903-7.184-7.172-17.126-3.254-25.559c3.922-8.426,12.316-13.872,21.614-13.99
					c10.198-0.126,16.78-2.609,19.571-7.388c4.857-8.316,2.641-25.3-5.148-39.51C2773.341,700.646,2515.2,646.01,2424.925,641.727
					c-126.815-6.032-232.18,29.47-313.327,105.48c-152.162,142.534-178.786,388.783-183.278,456.242L2720.34,1469.834z"/>
			</g>
			<g>
				<path fill="#B3CDDB" d="M1466.26,1466.775c0,0-542.014-315.916-786.568,134.862c-28.102,51.799-145.646,324.743-16.207,548.27
					c18.478,31.909,60.876,57.852,89.038,12.62c0,0,53.161,152.272,180.798,207.164c127.637,54.892,117.767-46.377,117.767-46.377
					s157.952,114.328,228.049-20.002L1466.26,1466.775z"/>
				<path fill="#252468" d="M997.7,2390.028c-18.132,0-40.174-5.549-65.969-16.647c-111.779-48.069-167.622-171.198-180.217-202.314
					c-12.619,16.45-26.585,20.301-36.425,19.791c-24.243-0.385-44.823-21.213-55.084-38.928
					c-120.051-207.321-29.045-468.904,16.152-552.208c64.331-118.586,155.148-195.005,269.934-227.143
					c244.764-68.544,519.453,89.12,522.2,90.723c1.513,0.88,2.283,2.641,1.898,4.354l-187.125,836.537
					c-0.075,0.338-0.197,0.668-0.358,0.982c-18.266,35.007-44.084,56.66-76.737,64.362c-61.985,14.58-129.625-24.797-150.704-38.52
					c-0.389,12.206-3.741,35.266-22.27,48.808C1023.68,2386.625,1011.886,2390.028,997.7,2390.028z M752.523,2158.5
					c0.146,0,0.295,0.008,0.444,0.024c1.537,0.173,2.845,1.21,3.356,2.672c0.527,1.509,54.102,151.258,178.59,204.798
					c43.177,18.564,74.58,21.032,93.333,7.333c21.85-15.963,18.871-49.288,18.839-49.618c-0.153-1.58,0.629-3.097,2-3.883
					c1.375-0.778,3.081-0.692,4.362,0.228c0.81,0.582,81.327,58.028,150.696,41.648c30.122-7.121,54.066-27.225,71.18-59.788
					l186.359-833.102c-28.287-15.727-284.541-152.594-513.46-88.476c-112.593,31.541-201.748,106.639-264.994,223.221
					c-44.599,82.196-134.458,340.226-16.261,544.332c9.935,17.158,28.707,34.614,48.25,34.92c0.177,0.008,0.354,0.008,0.531,0.008
					c12.874,0,24.094-7.537,33.36-22.423C749.847,2159.207,751.144,2158.5,752.523,2158.5z"/>
			</g>
			<g opacity="0.6">
				<path fill="#FFFFFF" d="M1466.271,1466.76l-7.797,34.753c-145.965-66.364-533.028-197.52-728.978,163.735
					c-26.835,49.44-135.025,300.088-32.517,517.071c-13.539-6.467-25.627-18.918-33.484-32.396
					c-129.464-223.571-11.907-496.461,16.198-548.259C924.237,1150.835,1466.271,1466.76,1466.271,1466.76z"/>
			</g>
			<g>
				<path fill="#F27778" d="M1470.937,1680.175c151.672,126.77,69.347,356.38-102.868,453.421s-415.084,85.568-520.779-102.005
					c-97.041-172.215-42.977-403.861,136.115-487.531C1141.243,1470.319,1349.69,1578.834,1470.937,1680.175z"/>
				<path fill="#252468" d="M1141.688,2197.892c-118.955,0-233.371-49.814-297.903-164.329
					c-51.099-90.676-62.272-199.233-30.656-297.832c28.346-88.413,88.216-157.774,168.577-195.319
					c155.428-72.607,362.08,28.24,491.815,136.671l0,0c58.582,48.965,86.97,118.106,79.94,194.682
					c-9.53,103.77-81.524,207.918-183.416,265.332C1300.644,2176.2,1220.178,2197.892,1141.688,2197.892z M1098.798,1523.798
					c-39.632,0-78.062,7.262-113.689,23.909c-78.305,36.587-136.663,104.234-164.317,190.478
					c-30.931,96.477-19.999,202.699,30.004,291.434c104.627,185.675,344.16,196.907,515.295,100.469
					c99.66-56.157,170.062-157.836,179.356-259.06c4.794-52.251-4.684-127.247-77.091-187.766l0,0
					C1370.418,1601.404,1228.265,1523.798,1098.798,1523.798z"/>
			</g>
			<g>
				<path fill="#F27778" d="M1507.37,1996.947c-32.034,54.76-80.447,103.475-139.316,136.657
					c-172.196,97.007-415.047,85.584-520.758-102.025c-97.068-172.196-42.974-403.865,136.113-487.515
					c30.1-14.023,61.952-21.457,94.771-23.572c139.317-9.066,294.589,77.666,392.745,159.685
					C1570.773,1763.584,1569.262,1891.538,1507.37,1996.947z"/>
				<path fill="#252468" d="M1141.703,2197.885c-118.963,0-233.387-49.814-297.914-164.336
					c-51.103-90.661-62.284-199.21-30.668-297.808c28.346-88.421,88.216-157.789,168.585-195.327
					c29.332-13.66,61.702-21.716,96.213-23.94c139.146-9.038,295.564,77.04,395.589,160.619
					c92.248,77.056,106.902,203.406,37.333,321.89c-33.081,56.542-83.088,105.594-140.809,138.125
					C1300.644,2176.2,1220.181,2197.885,1141.703,2197.885z M1098.468,1523.861c-6.72,0-13.385,0.212-20.03,0.644
					c-33.509,2.161-64.912,9.966-93.333,23.202c-78.305,36.579-136.667,104.226-164.321,190.485
					c-30.931,96.477-19.991,202.691,30.016,291.41c104.623,185.667,344.144,196.899,515.28,100.493
					c56.503-31.839,105.448-79.853,137.818-135.185h0.004c67.471-114.915,53.516-237.242-35.553-311.641
					C1374.316,1604.697,1230.033,1523.861,1098.468,1523.861z"/>
			</g>
			<g opacity="0.3">
				<path fill="#252468" d="M1507.37,1996.947c-154.185,41.524-327.529,4.473-412.448-146.146
					c-58.386-103.656-62.073-228.83-16.742-330.309c139.317-9.066,294.589,77.666,392.745,159.685
					C1570.773,1763.584,1569.262,1891.538,1507.37,1996.947z"/>
			</g>
			<g>
				<path fill="#252468" d="M1141.574,2218.029c-125.62,0-246.807-52.942-315.347-174.57
					c-53.842-95.549-65.612-209.954-32.287-313.881c30.079-93.812,93.734-167.472,179.234-207.423
					c164.03-76.623,378.998,27.249,513.268,139.469l0,0c63.812,53.335,94.74,128.622,87.088,211.981
					c-10.115,110.168-86.106,220.485-193.594,281.051C1307.557,2195.44,1223.616,2218.029,1141.574,2218.029z M1099.375,1543.785
					c-36.983,0-72.713,6.751-105.735,22.18c-73.165,34.181-127.734,97.53-153.659,178.374
					c-29.226,91.148-18.883,191.523,28.373,275.385c98.438,174.703,325.348,184.378,487.845,92.806
					c94.064-52.997,160.47-148.515,169.178-243.341c4.358-47.456-4.24-115.544-69.943-170.467l0,0
					C1360.456,1619.339,1223.031,1543.785,1099.375,1543.785z"/>
			</g>
			<g>
				<path fill="#F27778" d="M2062.61,1346.776c29.869,195.404,268.916,243.926,441.132,146.885s288.209-310.728,182.515-498.301
					c-97.041-172.215-323.19-245.965-487.531-136.115C2053.888,956.057,2038.732,1190.569,2062.61,1346.776z"/>
				<path fill="#252468" d="M2319.685,1546.19c-48.368,0-95.239-9.769-135.951-29.584
					c-69.137-33.655-113.567-93.749-125.102-169.225l0,0c-25.548-167.134-4.775-396.14,137.858-491.484
					c73.735-49.288,164.077-64.551,254.38-43.016c100.721,24.027,187.793,89.82,238.893,180.504
					c107.107,190.077-9.467,405.414-184.044,503.785C2448.095,1529.637,2382.628,1546.19,2319.685,1546.19z M2066.586,1346.171
					c14.261,93.278,73.491,140.231,120.672,163.197c91.391,44.493,214.842,36.932,314.506-19.209
					c171.131-96.43,285.618-307.138,180.987-492.829c-50.003-88.735-135.201-153.113-233.748-176.621
					c-88.106-21.032-176.189-6.146-248.041,41.884C2061.473,955.831,2041.396,1181.363,2066.586,1346.171z"/>
			</g>
			<g>
				<path fill="#F27778" d="M2503.738,1493.655c-64.913,36.628-139.376,52.523-208.521,47.568
					c-114.233-7.979-214.021-72.711-232.637-194.438c-20.55-134.541-12.149-327.166,83.167-439.828
					c15.292-18.193,32.88-34.27,53.007-47.688c164.339-109.881,390.448-36.144,487.516,136.113
					C2791.98,1182.929,2675.934,1396.648,2503.738,1493.655z"/>
				<path fill="#252468" d="M2320.227,1546.135c-8.461,0-16.894-0.299-25.296-0.896c-128.481-8.976-219.039-84.781-236.326-197.85
					c-21.5-140.726-10.701-331.007,84.07-443.038c15.912-18.926,34.032-35.219,53.846-48.431
					c73.731-49.295,164.046-64.598,254.349-43.047c100.713,24.019,187.793,89.827,238.904,180.535
					c49.307,87.477,53.98,189.267,13.157,286.616c-36.999,88.232-108.883,167.37-197.217,217.137
					C2449.128,1529.087,2384.129,1546.135,2320.227,1546.135z M2371.204,811.404c-61.01,0-119.627,17.385-170.215,51.213
					c-19.185,12.788-36.732,28.578-52.16,46.922c-93.038,109.979-103.499,297.659-82.271,436.64
					c16.69,109.131,104.415,182.335,228.938,191.028c70.328,5.077,143.548-11.672,206.263-47.055l0,0
					c86.809-48.902,157.428-126.626,193.747-213.239c28.185-67.215,48.855-170.271-12.744-279.558
					c-50.018-88.758-135.22-153.152-233.764-176.652C2422.932,814.484,2396.854,811.404,2371.204,811.404z"/>
			</g>
			<g opacity="0.3">
				<path fill="#252468" d="M2295.217,1541.223c-114.233-7.979-214.021-72.711-232.637-194.438
					c-20.55-134.541-12.149-327.166,83.167-439.828c106.255,16.742,206.345,83.589,262.736,183.74
					C2499.266,1251.771,2426.616,1432.006,2295.217,1541.223z"/>
			</g>
			<g>
				<path fill="#252468" d="M2319.637,1566.263c-51.417,0-101.326-10.414-144.723-31.541
					c-75.268-36.634-123.639-102.089-136.203-184.292l0,0c-26.444-172.99-3.922-410.688,146.578-511.283
					c78.458-52.439,174.428-68.724,270.26-45.869c106.16,25.331,197.925,94.653,251.771,190.21
					c113.296,201.065-8.504,428.003-191.711,531.238C2455.015,1548.87,2386.071,1566.263,2319.637,1566.263z M2086.506,1343.121
					c12.941,84.648,66.728,127.271,109.571,148.13c85.619,41.664,201.725,34.354,295.796-18.651
					c162.501-91.564,271.761-290.68,173.32-465.375c-47.256-83.862-127.758-144.703-220.866-166.914
					c-82.569-19.696-165.028-5.848-232.165,39.031C2080.541,967.322,2062.212,1184.169,2086.506,1343.121L2086.506,1343.121z"/>
			</g>
			<g>
				<path fill="#252468" d="M997.869,2410.109c-21.115,0-45.869-6.068-74.1-18.211c-99.063-42.607-155.62-137.292-179.883-188.017
					c-11.341,6.044-21.94,7.349-29.12,7.129c-32.657-0.527-59.305-26.715-72.202-48.989
					c-150.264-259.485,14.198-568.815,15.88-571.912c67.027-123.553,161.979-203.273,282.211-236.936
					c252.922-70.823,526.267,86,537.781,92.712c9.098,5.305,13.719,15.892,11.42,26.165l-187.125,836.537
					c-0.46,2.059-1.187,4.048-2.161,5.91c-21.095,40.43-51.37,65.549-89.977,74.65c-52.349,12.332-107.225-8.905-140.978-26.534
					c-4.378,11.884-11.907,24.113-24.734,33.482C1032.089,2405.441,1016.378,2410.109,997.869,2410.109z M752.519,2138.348
					c0.884,0,1.776,0.047,2.668,0.149c9.251,1.022,17.095,7.27,20.16,16.057c0.491,1.399,51.484,143.021,167.528,192.922
					c34.504,14.839,61.234,18.368,73.362,9.667c12.261-8.811,10.791-31.446,10.775-31.666c-0.762-9.408,4.008-18.502,12.229-23.131
					c8.229-4.621,18.388-4.142,26.023,1.384c0.704,0.511,74.136,52.604,134.356,38.331c23.791-5.651,42.344-21.119,56.64-47.236
					l182.414-815.465c-60.032-31.108-284.474-135.908-485.193-79.563c-107.06,30.039-192.022,101.821-252.537,213.372
					c-43.102,79.437-130.088,328.539-16.537,524.628c8.119,14.021,21.504,24.71,31.132,24.868
					c5.423,0.126,11.066-4.252,16.458-12.921C736.443,2142.608,744.235,2138.348,752.519,2138.348z"/>
			</g>
			<g>
				<path fill="#B3CDDB" d="M1663.697,1237.746c417.166-235.067,980.183-12.687,1166.404,317.793
					c200.752,356.269-52.084,692.048-465.96,925.262s-832.066,275.546-1032.818-80.722
					C1145.102,2069.599,1246.531,1472.814,1663.697,1237.746z"/>
				<path fill="#252468" d="M1785.511,2665.751c-5.981,0-11.907-0.079-17.806-0.228c-196.305-5.195-344.306-93.835-439.886-263.469
					c-92.924-164.91-115.536-396.643-60.483-619.887c60.149-243.923,200.215-438.511,394.387-547.924l1.977,3.505l-1.977-3.505
					c417.062-235.002,982.104-17.48,1171.886,319.328c95.584,169.626,94.74,342.136-2.507,512.737
					c-85.689,150.331-246.477,294.876-464.986,417.997C2155.062,2603.228,1954.799,2665.751,1785.511,2665.751z M2048.886,1143.747
					c-137.441,0-268.283,32.743-383.21,97.506c-192.222,108.313-330.913,301.101-390.528,542.847
					c-54.573,221.295-32.264,450.835,59.682,614.008c94.095,166.985,239.808,254.25,433.088,259.367
					c171.438,4.582,377.002-57.776,594.245-180.181c217.239-122.413,376.982-265.906,461.948-414.971
					c95.746-167.968,96.583-337.813,2.488-504.806c-91.946-163.165-276.729-301.156-494.294-369.111
					C2236.738,1158.554,2141.319,1143.747,2048.886,1143.747z"/>
			</g>
			<g opacity="0.6">
				<path fill="#FFFFFF" d="M2883.004,1932.94c10.517-97.431-9.61-198.609-67.573-301.418
					c-186.218-330.49-749.225-552.852-1166.388-317.798c-212.631,119.794-343.243,333.634-395.585,558.232
					c38.622-251.374,173.707-500.934,410.212-634.206c417.223-235.055,980.229-12.692,1166.448,317.798
					C2903.252,1685.374,2916.187,1812.481,2883.004,1932.94z"/>
			</g>
			<g opacity="0.3">
				<path fill="#252468" d="M2860.762,1997.188c-77.062,184.345-260.682,350.618-496.643,483.588
					c-413.839,233.241-832.029,275.55-1032.813-80.688c-137.382-243.879-118.222-632.756,68.963-914.289
					c-121.667,264.067-119.613,582.166-1.148,792.44c200.784,356.238,618.975,313.929,1032.813,80.688
					C2614.647,2255.997,2765.991,2133.059,2860.762,1997.188z"/>
			</g>
			<g>
				<path fill="#FFFFFF" d="M2465.944,2128.067c57.416,101.895-14.933,212.311-140.926,283.306
					c-125.992,70.995-257.917,75.685-315.333-26.21c-57.416-101.895,22.896-198.179,148.889-269.174
					S2408.528,2026.172,2465.944,2128.067z"/>
			</g>
			<g>
				<path fill="#252468" d="M1785.464,2685.903c-6.138,0-12.233-0.079-18.293-0.236c-203.882-5.399-357.608-97.49-456.91-273.719
					c-95.38-169.272-118.743-406.506-62.492-634.6c61.494-249.377,204.994-448.492,404.062-560.665l0,0
					c426.784-240.48,1005.078-17.755,1199.336,326.991c99.302,176.228,98.441,355.427-2.554,532.614
					c-87.497,153.498-250.922,300.661-472.606,425.574C2161.931,2622.492,1958.249,2685.903,1785.464,2685.903z M1675.567,1258.811
					c-187.326,105.554-322.582,293.815-380.853,530.106c-53.375,216.446-31.816,440.484,57.674,599.295
					c90.374,160.391,230.357,244.206,416.06,249.118c167.775,4.323,369.755-56.974,583.823-177.596
					c214.064-120.621,371.17-261.489,454.332-407.387c91.993-161.389,92.814-324.547,2.437-484.937
					c-89.486-158.811-269.954-293.305-482.745-359.765C2094.004,1135.085,1862.896,1153.257,1675.567,1258.811L1675.567,1258.811z
					 M1663.699,1237.748h0.079H1663.699z"/>
			</g>
			<g>
				<path fill="#252468" d="M2528.882,1663.584c16.896,12.516,26.994,30.951,33.716,49.732c6.47,19.028,9.027,39.518,7.18,60.149
					c-1.904,20.561-8.272,41.44-19.682,59.705c-11.255,18.309-27.1,33.844-44.996,44.949c-17.8,10.905-38.227,18.702-59.771,20.914
					c-21.488,2.26-43.428-1.305-62.602-9.612c-38.347-16.816-66.577-49.582-77.264-86.691c-1.244-4.327,1.252-8.838,5.574-10.084
					c3.403-0.983,6.922,0.354,8.875,3.077l0.196,0.279c19.74,27.603,47.128,48.089,76.179,55.835
					c29.041,8.084,57.982,2.004,83.05-14.293c24.585-16.246,41.21-40.414,47.861-70.281c3.358-14.804,4.394-30.715,2.943-46.603
					c-1.373-15.912-5.337-31.745-12.742-45.766l-0.529-0.998c-2.093-3.965-0.576-8.877,3.388-10.968
					C2523.109,1661.423,2526.454,1661.788,2528.882,1663.584z"/>
			</g>
			<g>
				<path fill="#252468" d="M1613.044,2177.46c8.158,13.597,19.649,25.19,32.547,34.606c12.839,9.471,26.988,16.827,41.391,21.625
					c28.99,9.777,58.275,8.08,84.907-4.535c26.925-13.004,47.118-34.606,55.247-63.635c8.424-28.865,5.085-62.904-8.3-94.087
					l-0.13-0.299c-1.774-4.134,0.138-8.925,4.274-10.701c3.252-1.395,6.92-0.499,9.198,1.957
					c26.206,28.365,39.612,69.487,34.132,110.997c-2.828,20.706-11.143,41.318-24.208,58.527
					c-13.053,17.279-30.303,30.715-48.851,40.292c-18.769,9.553-40.265,15.063-61.759,15.204
					c-21.531,0.299-42.689-5.069-61.264-14.088c-18.606-9.109-34.806-21.908-47.732-37.302
					c-12.581-15.479-23.121-33.667-25.076-54.601c-0.417-4.464,2.863-8.422,7.327-8.838c3.207-0.299,6.154,1.313,7.712,3.898
					L1613.044,2177.46z"/>
			</g>
			<g>
				<path fill="#252468" d="M1995.51,1847.21c9.504-9.656,21.675-16.513,34.857-19.641c83.466-19.806,204.17,52.906,265.454,126.078
					c56.489,67.448,116.873,187.408-56.669,285.196c-173.542,97.788-244.873-16.002-273.304-99.26
					C1935.003,2049.258,1935.332,1908.345,1995.51,1847.21z"/>
			</g>
			<g>
				<path fill="#B3CDDB" d="M1441.757,1508.531c-33.329-112.618,69.242-500.533,218.961-437.231
					c22.037,9.317,67.373,47.629,39.678,104.698c-25.26,52.054-42.642,107.757-37.267,95.704
					c25.978-58.251,157.76-238.937,237.977-168.941c38.208,33.34,11.036,107.655-30.76,143.761"/>
				<path fill="#252468" d="M1441.759,1512.559c-1.737,0-3.34-1.132-3.859-2.884c-25.398-85.811,27.945-335.251,123.03-420.214
					c32.617-29.159,66.708-36.523,101.358-21.873c12.418,5.258,36.146,21.354,46.289,48.352c7.364,19.602,5.832,40.398-4.563,61.816
					c-9.447,19.468-17.656,39.133-23.991,55.544c35.026-54.907,101.601-135.06,162.541-148.484
					c23.359-5.14,43.947-0.134,61.187,14.91c12.921,11.278,19.728,27.784,19.677,47.747c-0.086,34.535-20.832,76.513-50.451,102.088
					c-1.67,1.462-4.217,1.273-5.675-0.409c-1.454-1.682-1.265-4.229,0.417-5.675c27.98-24.168,47.578-63.655,47.661-96.029
					c0.043-17.558-5.804-31.965-16.918-41.656c-15.212-13.283-33.431-17.684-54.164-13.118
					c-74.427,16.395-158.21,137.433-177.494,180.669c-0.754,1.69-1.69,3.788-4.22,4.024c-1.438,0.212-2.889-0.534-3.714-1.729
					c-3.505-5.054,23.614-71.947,37.907-101.405c9.388-19.343,10.827-38.009,4.268-55.465c-9.204-24.49-31.427-39.337-41.892-43.762
					c-31.513-13.33-62.759-6.437-92.857,20.451c-93.238,83.32-145.568,327.832-120.676,411.938c0.629,2.13-0.585,4.37-2.716,4.999
					C1442.522,1512.504,1442.136,1512.559,1441.759,1512.559z"/>
			</g>
			<g opacity="0.6">
				<path fill="#FFFFFF" d="M1663.13,1263.654l-5.129,26.882c-1.596,8.363,3.839,16.452,12.186,18.135h0
					c15.988,3.224,31.978-5.078,38.743-19.918c18.177-39.872,64.502-118.625,134.149-141.84c0,0,56.528-35.525,66.493,36.563
					l9.831-75.243l-25.695-29.667l-61.085,5.22l-74.051,43.006l-30.359,39.923L1663.13,1263.654z"/>
			</g>
			<g opacity="0.6">
				<g>
					<path fill="#FFFFFF" d="M1700.96,1111.541c0.544,0.232,1.157,0.558,1.727,0.821c-10.048-21.559-29.643-35.852-41.968-41.063
						c-149.72-63.301-252.289,324.613-218.961,437.23l33.991-20.777C1478.122,1336.97,1572.064,1057.043,1700.96,1111.541z"/>
				</g>
			</g>
			<g>
				<path fill="#252468" d="M1441.747,1532.719c-10.433,0-20.058-6.806-23.17-17.323c-27.332-92.343,27.167-350.035,128.925-440.963
					c48.509-43.354,93.455-37.758,122.633-25.402c19.107,8.08,45.574,28.601,57.304,59.819c3.05,8.119,4.893,16.474,5.545,24.97
					c32.275-33.026,69.212-60.747,105.244-68.685c29.509-6.508,56.762,0.197,78.773,19.405
					c17.452,15.232,26.644,37.011,26.577,62.979c-0.102,40.579-23.182,87.721-57.43,117.297
					c-10.096,8.732-25.371,7.616-34.099-2.491s-7.612-25.379,2.495-34.103c23.127-19.971,40.615-54.719,40.681-80.82
					c0.027-11.711-3.34-20.6-10.017-26.424c-10.414-9.094-22.031-11.821-36.579-8.622
					c-63.36,13.959-144.302,126.328-163.425,169.194c-5.643,12.662-15.42,15.389-20.741,15.884
					c-8.701,0.802-17.189-3.136-22.16-10.312c-8.08-11.656-4.771-20.576,7.541-53.76c6.174-16.631,16.179-41.915,28.797-67.923
					c6.983-14.383,8.139-27.328,3.533-39.581c-6.256-16.662-22.258-28.648-30.876-32.295c-15.342-6.484-39.451-11.797-71.578,16.922
					c-85.744,76.623-138.266,311.838-114.782,391.188c3.788,12.803-3.517,26.251-16.32,30.047
					C1446.334,1532.396,1444.019,1532.719,1441.747,1532.719z"/>
			</g>
			<g opacity="0.7">
				<path fill="#FFFFFF" d="M2010.828,2006.413c-30.353,31.013-1.34,114.118,29.182,147.514
					c31.614,34.59,56.994,49.257,75.497,31.669c25.838-24.562,10.488-60.458-17.172-94.033
					C2078.774,2067.821,2048.287,1968.139,2010.828,2006.413z"/>
				<path fill="#252468" d="M2097.785,2197.083c-0.358,0-0.715-0.008-1.077-0.016c-16.018-0.566-34.975-13.409-59.67-40.43
					c-29.568-32.35-62.181-119.214-29.088-153.034l0,0c7.443-7.6,15.314-10.862,23.441-9.612
					c21.189,3.214,37.962,35.973,52.761,64.873c6.37,12.434,12.387,24.184,17.287,30.134c44.108,53.547,33.501,83.673,16.839,99.518
					C2112.29,2194.206,2105.401,2197.083,2097.785,2197.083z M2013.703,2009.23c-27.674,28.279-1.328,108.494,29.277,141.984
					c22.82,24.962,40.489,37.333,54.011,37.805c5.922,0.362,11.035-1.863,15.743-6.335c20.631-19.617,14.744-49.413-17.503-88.562
					c-5.458-6.626-11.385-18.195-18.242-31.596c-13.228-25.827-29.693-57.98-46.808-60.574
					C2024.706,2001.104,2019.314,2003.493,2013.703,2009.23L2013.703,2009.23z"/>
			</g>
			<g>
				<path fill="#B3CDDB" d="M2893.431,2753.644c200.68,9.655,327.942-80.728,384.179,115.318
					c9.151,31.902,8.591,77.325,33.585,149.182c57.951,166.61,305.106,204.981,429.581,134.732
					c236.661-133.561-49.207-352.647-49.207-352.647s86.697-597.509-499.03-377.163"/>
				<path fill="#252468" d="M3596.886,3190.474c-45.197,0-92.005-8.017-134.989-24.255c-76.804-29.01-131.676-81.127-154.5-146.755
					c-16.238-46.678-21.712-81.905-26.11-110.199c-2.342-15.083-4.366-28.106-7.545-39.196
					c-39.695-138.352-115.261-130.776-229.618-119.246c-44.458,4.464-94.846,9.565-150.885,6.838
					c-2.22-0.102-3.934-1.989-3.828-4.213c0.11-2.217,2.067-4.009,4.213-3.82c55.446,2.625,105.519-2.374,149.694-6.814
					c114.149-11.499,196.624-19.775,238.158,125.038c3.321,11.569,5.38,24.829,7.765,40.178
					c4.346,27.972,9.758,62.798,25.756,108.793c22.031,63.333,75.208,113.713,149.741,141.866
					c92.287,34.857,202.42,31.108,274.061-9.321c57.379-32.382,88.141-72.591,91.435-119.521
					c7.789-110.954-139.622-225.28-141.111-226.427c-1.155-0.88-1.745-2.326-1.533-3.765c0.37-2.57,35.628-258.298-102.638-369.527
					c-84.53-67.985-216.084-69.094-390.992-3.301c-2.079,0.802-4.401-0.267-5.183-2.35c-0.786-2.075,0.267-4.401,2.346-5.179
					c177.784-66.877,311.987-65.329,398.89,4.574c134.639,108.329,109.111,348.267,105.845,374.596
					c18.101,14.257,150.103,122.256,142.404,231.945c-3.494,49.791-35.627,92.169-95.51,125.966
					C3702.672,3178.999,3650.936,3190.474,3596.886,3190.474z"/>
			</g>
			<g opacity="0.6">
				<path fill="#FFFFFF" d="M3796.215,3119.152c39.95-254.196-170.406-207.801-170.406-207.801s137.706-580.543-410.731-467.142
					c-12.332,2.55-21.669-10.796-14.508-21.154l0,0c585.733-220.307,499.06,377.151,499.06,377.151
					S3941.333,2985.457,3796.215,3119.152z"/>
			</g>
			<g opacity="0.3">
				<path fill="#252468" d="M3740.781,3152.878c-124.508,70.233-371.651,31.853-429.614-134.723
					c-24.962-71.864-24.418-117.315-33.545-149.167c-56.27-196.07-183.498-105.711-384.162-115.321l95.557-105.651
					c165.668-6.406,272.83-60.259,323.117,115.14c9.127,31.913,8.583,77.304,33.605,149.168
					c57.962,166.635,305.105,205.016,429.553,134.722c24.72-13.961,43.759-28.83,57.963-44.303
					C3840.327,3054.782,3819.354,3108.514,3740.781,3152.878z"/>
			</g>
			<g>
				<path fill="#252468" d="M2894.594,2729.495c30.988,1.356,62.157,0.594,93.651-1.886c31.503-2.28,63.246-6.241,96.239-8.866
					c16.529-1.254,33.417-2.157,50.923-1.635c17.464,0.55,35.729,2.547,54.041,8.115c18.291,5.388,36.274,15.24,50.806,28.263
					c14.658,12.964,25.897,28.448,34.773,44.246c8.917,15.868,15.183,32.22,20.822,48.533c2.499,8.217,5.286,16.069,7.378,25.426
					c2.032,8.885,3.407,17.279,4.692,25.371c4.792,32.224,10.09,61.832,19.119,91.431c2.181,7.36,4.621,14.705,7.093,21.956
					c2.696,6.598,4.969,13.381,8.331,19.681c2.871,6.531,6.767,12.532,10.298,18.725c4.105,5.852,7.944,11.884,12.636,17.342
					c8.99,11.172,19.183,21.52,30.578,30.633c11.304,9.184,23.42,17.594,36.447,24.667c51.879,28.762,113.516,41.888,173.711,40.434
					c30.132-0.699,60.081-5.529,87.888-14.756c13.915-4.834,26.833-10.52,39.31-18.105c12.758-7.608,24.98-15.869,35.486-25.355
					l7.879-7.105l6.879-7.706c4.987-4.924,8.088-10.787,12.175-16.132c6.567-11.42,11.249-23.465,13.406-36.166
					c3.698-25.489-2.503-53.32-15.391-79.476c-12.56-26.282-30.772-50.974-50.862-74.002c-10.15-11.483-20.875-22.581-32.051-33.223
					c-11.025-10.532-23.143-21.091-34.443-29.89c-7.239-5.639-10.569-14.434-9.563-22.923l0.057-0.444
					c1.825-15.063,2.995-32.008,3.441-48.187c0.387-16.356,0.499-32.759-0.354-49.072c-1.287-32.633-4.865-65.125-11.966-96.457
					c-7.223-31.25-16.967-61.694-31.592-89.159c-14.469-27.521-33.851-51.685-57.499-70.603
					c-23.602-18.977-51.655-32.523-82.103-40.104c-7.522-2.134-15.45-3.042-23.178-4.669c-3.91-0.629-7.738-1.698-11.73-1.988
					l-11.976-0.939l-12-0.971c-4.003-0.365-8.005-0.81-12.076-0.609l-24.386,0.161c-8.146-0.287-16.318,0.959-24.502,1.603
					l-24.616,2.181c-16.323,2.774-32.788,5.03-49.168,8.217c-16.277,3.722-32.757,6.901-49.034,11.094
					c-16.144,4.672-32.413,9.109-48.782,13.459l-0.43,0.114c-4.303,1.144-8.716-1.415-9.86-5.718
					c-1.043-3.922,0.992-7.934,4.614-9.479c15.76-6.755,31.623-13.42,47.609-19.853c16.1-6.127,32.613-11.286,48.993-16.989
					c16.572-5.093,33.619-8.823,50.502-13.291l25.931-4.512c8.693-1.332,17.291-3.246,26.182-3.639l26.555-2.118
					c8.856-0.876,17.892,0,26.856,0.008l13.489,0.334c4.5,0.09,9.001,0.994,13.511,1.462c8.997,1.313,18.094,1.937,27.052,3.898
					c36.058,6.72,71.322,22.18,101.646,44.489c30.391,22.431,54.543,52.361,72.418,84.534
					c17.875,32.307,30.149,66.889,37.773,101.919c7.824,35.034,11.585,70.434,12.894,105.708
					c0.711,17.653,0.354,35.274-0.295,52.887c-0.768,17.79-2.065,34.791-4.582,53.445l-9.504-23.363
					c14.006,11.172,25.966,22.105,38.229,33.851c12.09,11.668,23.712,23.846,34.824,36.591
					c22.017,25.634,42.446,53.371,57.605,85.398c15.389,31.427,25.208,69.082,19.541,107.751
					c-3.136,19.17-10.265,37.522-19.938,53.964c-5.458,7.62-10.388,15.916-16.808,22.486c-3.077,3.435-6.109,6.956-9.269,10.281
					l-10.035,9.133c-13.452,12.08-28.094,21.936-42.996,30.818c-15.071,9.152-31.8,16.572-48.342,22.247
					c-33.399,11.094-67.834,16.462-102.114,17.299c-68.428,1.521-137.417-12.823-198.579-46.544
					c-15.295-8.339-29.821-18.336-43.505-29.47c-13.762-11.047-26.373-23.763-37.579-37.687
					c-5.792-6.814-10.71-14.344-15.794-21.732c-4.527-7.758-9.327-15.377-13.018-23.595c-4.179-7.985-7.166-16.481-10.475-24.836
					c-2.731-8.001-5.37-15.955-7.771-24.05c-9.86-32.111-15.886-66.162-20.545-97.683c-1.236-7.824-2.501-15.342-4.071-22.172
					c-1.377-6.398-3.951-13.778-6.134-20.981c-4.885-14.112-10.239-27.98-17.169-40.237c-13.839-24.801-32.34-42.587-57.566-49.838
					c-25.235-7.675-55.919-6.838-87.004-4.488c-31.279,2.476-63.547,6.488-96.355,8.874c-32.772,2.582-66.172,3.447-99.599,1.969
					c-13.338-0.589-23.673-11.884-23.082-25.221c0.589-13.342,11.882-23.673,25.221-23.084L2894.594,2729.495z"/>
			</g>
			<g>
				<path fill="#252468" d="M3542.832,2949.265c30.393-21.177,57.923-44.607,79.458-70.485
					c10.933-12.858,19.173-26.911,26.921-40.465c7.838-13.711,12.41-28.063,18.623-42.682l1.287-3.03
					c5.213-12.265,19.384-17.983,31.65-12.768c10.076,4.28,15.725,14.635,14.534,24.986c-0.613,5.282-1.544,10.559-2.562,15.837
					c-0.572,2.617-1.061,5.274-1.727,7.871c-0.804,2.551-1.8,5.038-2.708,7.561c-1.898,5.002-3.604,10.147-6.044,14.886
					c-2.535,4.684-5.06,9.38-7.838,13.915c-11.385,17.881-26.029,33.152-42.088,45.468c-16.073,12.355-33.411,22.251-51.357,29.945
					c-18.089,7.467-36.53,13.208-55.913,15.495c-1.936,0.228-3.69-1.156-3.918-3.089c-0.159-1.336,0.452-2.586,1.482-3.309
					L3542.832,2949.265z"/>
			</g>
			<g>
				<ellipse fill="#252468" cx="2341.03" cy="2276.298" rx="52.63" ry="58.97"/>
			</g>
		</g>
		<g>
			<g>
				<path fill="#2E368E" d="M1133.474,892.908c-8.783,0-16.87-4.983-20.793-12.937c-4.138-8.394-2.829-18.446,3.321-25.504
					l83.658-95.903l-72.878,4.582c-12.74,0.794-23.799-8.905-24.601-21.693c-0.806-12.78,8.909-23.799,21.693-24.601l128.339-8.072
					c9.215-0.652,18.116,4.496,22.255,12.89c4.138,8.394,2.829,18.447-3.321,25.504l-83.657,95.903l72.878-4.582
					c12.666-0.872,23.795,8.905,24.601,21.693c0.806,12.78-8.909,23.799-21.693,24.601l-128.339,8.072
					C1134.449,892.892,1133.962,892.908,1133.474,892.908z"/>
			</g>
			<g>
				<path fill="#2E368E" d="M766.168,677.063c-8.783,0-16.871-4.983-20.793-12.937c-4.138-8.394-2.829-18.45,3.325-25.5
					l164.156-188.194l-158.843,9.986c-12.732,0.802-23.799-8.905-24.601-21.693c-0.805-12.783,8.909-23.799,21.693-24.601
					l214.304-13.471c9.235-0.613,18.113,4.492,22.255,12.89c4.138,8.394,2.829,18.45-3.325,25.501L820.183,627.237l158.843-9.986
					c12.717-0.884,23.791,8.909,24.601,21.693c0.806,12.784-8.909,23.799-21.693,24.601l-214.304,13.471
					C767.142,677.047,766.655,677.063,766.168,677.063z"/>
			</g>
			<g>
				<path fill="#2E368E" d="M1115.676,372.547c-9.377,0-18.01-5.317-22.199-13.809c-4.417-8.96-3.018-19.7,3.549-27.23
					l242.764-278.305l-241.671,15.189c-13.573,0.927-25.402-9.51-26.263-23.158c-0.861-13.648,9.51-25.406,23.158-26.263
					l300.885-18.914c9.954-0.68,19.342,4.794,23.76,13.758c4.417,8.96,3.018,19.7-3.549,27.23l-242.763,278.304l241.671-15.189
					c13.601-0.825,25.406,9.51,26.263,23.158c0.861,13.648-9.51,25.406-23.158,26.263l-300.885,18.914
					C1116.718,372.531,1116.195,372.547,1115.676,372.547z"/>
			</g>
		</g>
	</g>
</g>
</svg>
